<?xml version="1.0" standalone="no"?>
<!DOCTYPE svg PUBLIC "-//W3C//DTD SVG 20010904//EN"
 "http://www.w3.org/TR/2001/REC-SVG-20010904/DTD/svg10.dtd">
<svg version="1.0" xmlns="http://www.w3.org/2000/svg"
 width="512.000000pt" height="512.000000pt" viewBox="0 0 512.000000 512.000000"
 preserveAspectRatio="xMidYMid meet">

<g transform="translate(0.000000,512.000000) scale(0.100000,-0.100000)"
fill="#000000" stroke="none">
<path d="M7 4223 c-4 -207 -7 -940 -7 -1630 l0 -1253 410 0 410 0 0 -35 0 -35
75 0 75 0 0 35 0 35 164 0 165 0 -94 -195 -94 -195 117 -56 c242 -116 302
-144 307 -144 3 0 53 98 110 217 103 212 106 217 124 197 10 -10 85 -93 167
-183 l149 -164 6 144 c4 79 7 197 8 262 l1 117 1100 0 1100 0 2 1143 3 1142
38 3 37 3 0 75 0 74 -41 0 -40 0 7 403 7 404 -519 6 c-285 4 -1253 7 -2150 7
l-1631 0 -6 -377z m4140 213 c2 -2 2 -521 1 -1154 l-3 -1152 -569 725 -569
725 -110 -163 c-60 -89 -240 -358 -400 -597 -159 -239 -293 -439 -297 -443 -4
-5 -220 261 -479 592 -259 330 -475 602 -480 605 -4 3 -250 -357 -545 -800
-296 -443 -540 -803 -543 -800 -3 2 -1 561 3 1242 l7 1237 1991 -7 c1095 -4
1992 -9 1993 -10z m-2532 -1577 c198 -253 361 -463 363 -468 1 -4 -241 -208
-539 -454 l-540 -447 -372 2 -372 3 -3 95 -3 95 548 817 c301 450 550 818 553
817 3 0 167 -207 365 -460z m1979 -273 l556 -708 0 -194 0 -194 -634 0 -634 0
-291 370 c-160 204 -291 375 -291 380 0 6 161 251 357 545 286 430 359 533
369 523 7 -7 263 -332 568 -722z m-1186 -738 c150 -191 272 -349 272 -352 0
-3 -130 -6 -289 -6 l-288 0 4 338 c4 337 7 393 22 376 4 -5 130 -165 279 -356z
m-456 -268 l-7 -384 -115 126 c-63 70 -118 124 -122 120 -3 -4 -57 -113 -119
-242 -62 -129 -116 -239 -119 -243 -8 -9 -150 58 -150 70 0 3 52 114 115 246
63 131 115 242 115 247 0 4 -57 11 -127 15 -71 4 -146 10 -167 14 l-39 6 369
306 369 305 2 -100 c2 -56 0 -274 -5 -486z"/>
<path d="M3555 4294 c-113 -15 -200 -57 -277 -135 -244 -244 -144 -650 188
-763 68 -23 205 -21 277 3 280 97 400 417 252 670 -38 65 -117 142 -179 173
-75 38 -190 61 -261 52z m172 -178 c211 -99 243 -379 60 -525 -115 -91 -295
-79 -402 27 -151 149 -105 408 89 498 72 34 180 33 253 0z"/>
<path d="M4530 3705 l0 -75 110 0 111 0 -3 73 -3 72 -107 3 -108 3 0 -76z"/>
<path d="M4892 3703 l3 -78 38 -3 c35 -3 37 -5 37 -38 l0 -34 75 0 75 0 0 115
0 115 -115 0 -116 0 3 -77z"/>
<path d="M4970 3185 l0 -155 75 0 75 0 0 155 0 155 -75 0 -75 0 0 -155z"/>
<path d="M4970 2665 l0 -155 75 0 75 0 0 155 0 155 -75 0 -75 0 0 -155z"/>
<path d="M4965 2156 c-4 -80 -4 -149 0 -155 3 -6 39 -11 81 -11 l74 0 0 155 0
155 -74 0 -74 0 -7 -144z"/>
<path d="M4962 1628 l3 -153 75 0 75 0 3 153 3 152 -81 0 -81 0 3 -152z"/>
<path d="M4964 1257 c-2 -7 -3 -78 -2 -157 l3 -145 71 -3 71 -3 8 150 c4 82 4
155 0 160 -9 16 -144 14 -151 -2z"/>
<path d="M817 1113 c-4 -3 -7 -53 -7 -110 l0 -103 80 0 80 0 0 110 0 110 -73
0 c-41 0 -77 -3 -80 -7z"/>
<path d="M810 640 l0 -110 115 0 115 0 0 75 0 75 -35 0 c-33 0 -35 2 -35 35
l0 35 -80 0 -80 0 0 -110z"/>
<path d="M4967 743 c-4 -3 -7 -21 -7 -40 0 -31 -2 -33 -35 -33 l-35 0 0 -75 0
-75 110 0 110 0 0 115 0 115 -68 0 c-38 0 -72 -3 -75 -7z"/>
<path d="M1250 605 l0 -75 155 0 155 0 0 75 0 75 -155 0 -155 0 0 -75z"/>
<path d="M1770 600 l0 -80 155 0 155 0 0 80 0 80 -155 0 -155 0 0 -80z"/>
<path d="M2290 600 l0 -80 155 0 155 0 0 80 0 80 -155 0 -155 0 0 -80z"/>
<path d="M2810 595 l0 -75 155 0 155 0 0 75 0 75 -155 0 -155 0 0 -75z"/>
<path d="M3330 595 l0 -75 155 0 155 0 0 75 0 75 -155 0 -155 0 0 -75z"/>
<path d="M3850 595 l0 -75 155 0 155 0 0 75 0 75 -155 0 -155 0 0 -75z"/>
<path d="M4370 595 l0 -75 155 0 155 0 0 75 0 75 -155 0 -155 0 0 -75z"/>
</g>
</svg>
