<?xml version="1.0" standalone="no"?>
<!DOCTYPE svg PUBLIC "-//W3C//DTD SVG 20010904//EN"
 "http://www.w3.org/TR/2001/REC-SVG-20010904/DTD/svg10.dtd">
<svg version="1.0" xmlns="http://www.w3.org/2000/svg"
 width="512.000000pt" height="512.000000pt" viewBox="0 0 512.000000 512.000000"
 preserveAspectRatio="xMidYMid meet">

<g transform="translate(0.000000,512.000000) scale(0.100000,-0.100000)"
fill="#000000" stroke="none">
<path d="M615 4948 c-91 -17 -213 -84 -286 -157 -78 -78 -142 -198 -159 -301
-8 -46 -10 -494 -8 -1505 3 -1322 5 -1444 20 -1488 59 -165 173 -303 308 -370
141 -70 97 -67 1081 -67 l886 0 23 -62 c131 -366 444 -665 818 -782 125 -39
240 -56 382 -56 353 0 659 127 905 374 234 236 358 517 372 846 14 316 -82
610 -278 855 l-66 82 173 554 c95 305 173 568 173 584 1 49 -33 110 -75 136
-36 22 -50 24 -206 27 l-168 4 0 197 c0 218 -8 271 -62 381 -45 94 -160 206
-258 253 -41 19 -99 40 -128 46 -36 8 -342 11 -964 11 l-912 0 -211 210 c-132
130 -225 215 -248 225 -31 13 -111 15 -549 14 -282 -1 -535 -5 -563 -11z
m1190 -517 c134 -134 224 -216 247 -225 33 -14 151 -16 990 -16 l953 0 50 -24
c60 -28 97 -66 124 -126 18 -40 21 -66 21 -232 l0 -188 -1507 -2 c-1488 -3
-1508 -3 -1542 -23 -19 -11 -42 -31 -52 -45 -10 -14 -150 -416 -311 -895
l-293 -869 -3 1319 c-2 1484 -8 1380 73 1460 73 73 72 73 585 74 l454 1 211
-209z m2775 -1138 c0 -10 -230 -746 -235 -751 -2 -2 -46 16 -97 41 -561 276
-1227 116 -1598 -384 -152 -205 -250 -497 -250 -748 l0 -71 -842 0 c-464 0
-849 4 -855 8 -9 6 9 71 71 252 45 135 190 563 321 953 l237 707 1624 0 c893
0 1624 -3 1624 -7z m-665 -923 c183 -49 305 -120 440 -255 136 -137 206 -259
256 -445 19 -70 23 -111 23 -230 0 -156 -12 -225 -60 -349 -96 -242 -303 -449
-545 -545 -249 -97 -534 -84 -773 36 -116 58 -161 91 -261 192 -125 127 -197
254 -247 436 -29 109 -32 334 -5 444 44 178 128 327 257 457 150 152 331 246
535 279 96 15 288 5 380 -20z"/>
<path d="M3615 2066 c-37 -17 -70 -52 -84 -89 -7 -18 -11 -140 -11 -329 l0
-300 -39 35 c-22 20 -58 41 -80 48 -114 34 -225 -78 -192 -193 11 -36 46 -76
204 -235 163 -163 198 -193 229 -198 86 -16 99 -8 300 193 141 140 192 197
204 229 30 78 -5 160 -82 195 -66 29 -119 19 -178 -33 l-45 -40 -3 315 c-3
300 -4 316 -24 342 -11 15 -32 37 -46 47 -34 25 -113 32 -153 13z"/>
</g>
</svg>
